<svg version="1.1" xmlns="http://www.w3.org/2000/svg" xmlns:xlink="http://www.w3.org/1999/xlink" data-browser="Chrome[58.0]" preserveAspectRatio="xMidYMid meet" viewBox="0 0 150 150">
  <g id="logo__item--logo_0" class="logo__item">
    <g class="logo__item__inner">
      <g>
      	<polygon fill="#38A3DC" points="23,37.5 59,47 59,21 23,3.8"></polygon>
      	<polygon fill="#38A3DC" points="62.2,101.1 82.5,96.2 82.5,77.2 62.2,77.7"></polygon>
      	<polygon fill="#38A3DC" points="62.2,74.5 82.5,75 82.5,55.1 62.2,50.3"></polygon>
      	<polygon fill="#38A3DC" points="96.7,39 85.1,33.4 85.1,53.9 96.8,56.9"></polygon>
      	<polygon fill="#38A3DC" points="96.8,58.5 85.1,55.7 85.1,75 96.8,75.3"></polygon>
      	<polygon fill="#38A3DC" points="96.9,94.4 85.1,97.5 85.1,117.5 96.9,111.8"></polygon>
      	<polygon fill="#38A3DC" points="96.8,76.9 85.1,77.2 85.1,95.6 96.9,92.8"></polygon>
      	<polygon fill="#38A3DC" points="109.5,59.5 101.3,57.6 101.3,71.1 109.5,71.3"></polygon>
      	<polygon fill="#38A3DC" points="122,57.4 116.8,56.1 116.8,64.7 122,64.8"></polygon>
      	<polygon fill="#214254" points="130.5,66.2 126.2,65.1 126.2,72.3 130.5,72.4"></polygon>
      	<polygon fill="#38A3DC" points="118.9,72.1 112.5,70.5 112.5,81.2 119,81.4"></polygon>
      	<polygon fill="#214254" points="109.9,75.7 101.7,75.9 101.7,88.8 109.9,86.8"></polygon>
      	<polygon fill="#38A3DC" points="23,147.4 59,130 59,104.4 23,113.8"></polygon>
      	<polygon fill="#38A3DC" points="62.2,128.5 82.5,118.7 82.5,98.2 62.2,103.5"></polygon>
      	<polygon fill="#38A3DC" points="62.2,47.8 82.5,53.2 82.5,32.2 62.2,22.5"></polygon>
      	<polygon fill="#214254" points="22.9,41 22.9,73.6 58.9,74.4 58.9,49.5"></polygon>
      	<polygon fill="#214254" points="22.9,110.4 58.9,101.8 58.9,77.8 22.9,78.6"></polygon>
      	<polygon fill="#214254" points="84.3,128.2 57.6,141.9 57.6,132.7 84.5,120"></polygon>
      </g>
    </g>
  </g>
</svg>
